<svg xmlns="http://www.w3.org/2000/svg" width="512" height="512"><symbol id="icon-search" viewBox="0 0 32 32"><path d="m31.008 27.231-7.58-6.447c-.784-.705-1.622-1.029-2.299-.998a11.954 11.954 0 0 0 2.87-7.787c0-6.627-5.373-12-12-12s-12 5.373-12 12 5.373 12 12 12c2.972 0 5.691-1.081 7.787-2.87-.031.677.293 1.515.998 2.299l6.447 7.58c1.104 1.226 2.907 1.33 4.007.23s.997-2.903-.23-4.007zM12 20a8 8 0 1 1 0-16 8 8 0 0 1 0 16z"/></symbol><path d="M496.131 435.698 374.855 332.551c-12.537-11.283-25.945-16.463-36.776-15.963C366.707 283.054 384 239.549 384 192 384 85.961 298.039 0 192 0S0 85.961 0 192s85.961 192 192 192c47.549 0 91.054-17.293 124.588-45.922-.5 10.831 4.68 24.239 15.963 36.776L435.698 496.13c17.661 19.623 46.511 21.277 64.11 3.678s15.946-46.449-3.677-64.11zM192 320c-70.692 0-128-57.308-128-128S121.308 64 192 64s128 57.308 128 128-57.307 128-128 128z"/></svg>